<svg width="386" height="60" viewBox="0 0 386 60" fill="none" xmlns="http://www.w3.org/2000/svg">
<g id="ONLINECPR" filter="url(#filter0_d)">
<mask id="path-1-inside-1" fill="white">
<path d="M29.4562 51.504C24.8002 51.504 20.5522 50.424 16.7122 48.264C12.8722 46.056 9.82417 43.008 7.56817 39.12C5.36017 35.184 4.25616 30.768 4.25616 25.872C4.25616 20.976 5.36017 16.584 7.56817 12.696C9.82417 8.76 12.8722 5.712 16.7122 3.552C20.5522 1.344 24.8002 0.24 29.4562 0.24C34.1602 0.24 38.4322 1.344 42.2722 3.552C46.1122 5.712 49.1362 8.736 51.3442 12.624C53.5522 16.512 54.6562 20.928 54.6562 25.872C54.6562 30.816 53.5522 35.232 51.3442 39.12C49.1362 43.008 46.1122 46.056 42.2722 48.264C38.4322 50.424 34.1602 51.504 29.4562 51.504ZM29.4562 45.816C32.9602 45.816 36.1042 45 38.8882 43.368C41.7202 41.736 43.9282 39.408 45.5122 36.384C47.1442 33.36 47.9602 29.856 47.9602 25.872C47.9602 21.84 47.1442 18.336 45.5122 15.36C43.9282 12.336 41.7442 10.008 38.9602 8.376C36.1762 6.744 33.0082 5.928 29.4562 5.928C25.9042 5.928 22.7362 6.744 19.9522 8.376C17.1682 10.008 14.9602 12.336 13.3282 15.36C11.7442 18.336 10.9522 21.84 10.9522 25.872C10.9522 29.856 11.7442 33.36 13.3282 36.384C14.9602 39.408 17.1682 41.736 19.9522 43.368C22.7842 45 25.9522 45.816 29.4562 45.816Z"/>
<path d="M102.762 51H96.2097L69.8577 11.04V51H63.3057V0.744001H69.8577L96.2097 40.632V0.744001H102.762V51Z"/>
<path d="M120.483 45.672H138.051V51H113.931V0.816H120.483V45.672Z"/>
<path d="M151.561 0.816V51H145.009V0.816H151.561Z"/>
<path d="M202.184 51H195.632L169.28 11.04V51H162.728V0.744001H169.28L195.632 40.632V0.744001H202.184V51Z"/>
<path d="M219.905 6.144V22.92H238.193V28.32H219.905V45.6H240.353V51H213.353V0.744001H240.353V6.144H219.905Z"/>
<path d="M247.819 25.872C247.819 20.976 248.923 16.584 251.131 12.696C253.339 8.76 256.339 5.688 260.131 3.48C263.971 1.272 268.219 0.167999 272.875 0.167999C278.347 0.167999 283.123 1.488 287.203 4.128C291.283 6.768 294.259 10.512 296.131 15.36H288.283C286.891 12.336 284.875 10.008 282.235 8.376C279.643 6.744 276.523 5.928 272.875 5.928C269.371 5.928 266.227 6.744 263.443 8.376C260.659 10.008 258.475 12.336 256.891 15.36C255.307 18.336 254.515 21.84 254.515 25.872C254.515 29.856 255.307 33.36 256.891 36.384C258.475 39.36 260.659 41.664 263.443 43.296C266.227 44.928 269.371 45.744 272.875 45.744C276.523 45.744 279.643 44.952 282.235 43.368C284.875 41.736 286.891 39.408 288.283 36.384H296.131C294.259 41.184 291.283 44.904 287.203 47.544C283.123 50.136 278.347 51.432 272.875 51.432C268.219 51.432 263.971 50.352 260.131 48.192C256.339 45.984 253.339 42.936 251.131 39.048C248.923 35.16 247.819 30.768 247.819 25.872Z"/>
<path d="M339.436 15.504C339.436 19.68 337.996 23.16 335.116 25.944C332.284 28.68 327.94 30.048 322.084 30.048H312.436V51H305.884V0.816H322.084C327.748 0.816 332.044 2.184 334.972 4.92C337.948 7.656 339.436 11.184 339.436 15.504ZM322.084 24.648C325.732 24.648 328.42 23.856 330.148 22.272C331.876 20.688 332.74 18.432 332.74 15.504C332.74 9.312 329.188 6.216 322.084 6.216H312.436V24.648H322.084Z"/>
<path d="M374.003 51L362.051 30.48H354.131V51H347.579V0.816H363.779C367.571 0.816 370.763 1.464 373.355 2.76C375.995 4.056 377.963 5.808 379.259 8.016C380.555 10.224 381.203 12.744 381.203 15.576C381.203 19.032 380.195 22.08 378.179 24.72C376.211 27.36 373.235 29.112 369.251 29.976L381.851 51H374.003ZM354.131 25.224H363.779C367.331 25.224 369.995 24.36 371.771 22.632C373.547 20.856 374.435 18.504 374.435 15.576C374.435 12.6 373.547 10.296 371.771 8.664C370.043 7.032 367.379 6.216 363.779 6.216H354.131V25.224Z"/>
</mask>
<path d="M29.4562 51.504C24.8002 51.504 20.5522 50.424 16.7122 48.264C12.8722 46.056 9.82417 43.008 7.56817 39.12C5.36017 35.184 4.25616 30.768 4.25616 25.872C4.25616 20.976 5.36017 16.584 7.56817 12.696C9.82417 8.76 12.8722 5.712 16.7122 3.552C20.5522 1.344 24.8002 0.24 29.4562 0.24C34.1602 0.24 38.4322 1.344 42.2722 3.552C46.1122 5.712 49.1362 8.736 51.3442 12.624C53.5522 16.512 54.6562 20.928 54.6562 25.872C54.6562 30.816 53.5522 35.232 51.3442 39.12C49.1362 43.008 46.1122 46.056 42.2722 48.264C38.4322 50.424 34.1602 51.504 29.4562 51.504ZM29.4562 45.816C32.9602 45.816 36.1042 45 38.8882 43.368C41.7202 41.736 43.9282 39.408 45.5122 36.384C47.1442 33.36 47.9602 29.856 47.9602 25.872C47.9602 21.84 47.1442 18.336 45.5122 15.36C43.9282 12.336 41.7442 10.008 38.9602 8.376C36.1762 6.744 33.0082 5.928 29.4562 5.928C25.9042 5.928 22.7362 6.744 19.9522 8.376C17.1682 10.008 14.9602 12.336 13.3282 15.36C11.7442 18.336 10.9522 21.84 10.9522 25.872C10.9522 29.856 11.7442 33.36 13.3282 36.384C14.9602 39.408 17.1682 41.736 19.9522 43.368C22.7842 45 25.9522 45.816 29.4562 45.816Z" stroke="#FFFCFC" stroke-width="2" mask="url(#path-1-inside-1)"/>
<path d="M102.762 51H96.2097L69.8577 11.04V51H63.3057V0.744001H69.8577L96.2097 40.632V0.744001H102.762V51Z" stroke="#FFFCFC" stroke-width="2" mask="url(#path-1-inside-1)"/>
<path d="M120.483 45.672H138.051V51H113.931V0.816H120.483V45.672Z" stroke="#FFFCFC" stroke-width="2" mask="url(#path-1-inside-1)"/>
<path d="M151.561 0.816V51H145.009V0.816H151.561Z" stroke="#FFFCFC" stroke-width="2" mask="url(#path-1-inside-1)"/>
<path d="M202.184 51H195.632L169.28 11.04V51H162.728V0.744001H169.28L195.632 40.632V0.744001H202.184V51Z" stroke="#FFFCFC" stroke-width="2" mask="url(#path-1-inside-1)"/>
<path d="M219.905 6.144V22.92H238.193V28.32H219.905V45.6H240.353V51H213.353V0.744001H240.353V6.144H219.905Z" stroke="#FFFCFC" stroke-width="2" mask="url(#path-1-inside-1)"/>
<path d="M247.819 25.872C247.819 20.976 248.923 16.584 251.131 12.696C253.339 8.76 256.339 5.688 260.131 3.48C263.971 1.272 268.219 0.167999 272.875 0.167999C278.347 0.167999 283.123 1.488 287.203 4.128C291.283 6.768 294.259 10.512 296.131 15.36H288.283C286.891 12.336 284.875 10.008 282.235 8.376C279.643 6.744 276.523 5.928 272.875 5.928C269.371 5.928 266.227 6.744 263.443 8.376C260.659 10.008 258.475 12.336 256.891 15.36C255.307 18.336 254.515 21.84 254.515 25.872C254.515 29.856 255.307 33.36 256.891 36.384C258.475 39.36 260.659 41.664 263.443 43.296C266.227 44.928 269.371 45.744 272.875 45.744C276.523 45.744 279.643 44.952 282.235 43.368C284.875 41.736 286.891 39.408 288.283 36.384H296.131C294.259 41.184 291.283 44.904 287.203 47.544C283.123 50.136 278.347 51.432 272.875 51.432C268.219 51.432 263.971 50.352 260.131 48.192C256.339 45.984 253.339 42.936 251.131 39.048C248.923 35.16 247.819 30.768 247.819 25.872Z" stroke="#FFFCFC" stroke-width="2" mask="url(#path-1-inside-1)"/>
<path d="M339.436 15.504C339.436 19.68 337.996 23.16 335.116 25.944C332.284 28.68 327.94 30.048 322.084 30.048H312.436V51H305.884V0.816H322.084C327.748 0.816 332.044 2.184 334.972 4.92C337.948 7.656 339.436 11.184 339.436 15.504ZM322.084 24.648C325.732 24.648 328.42 23.856 330.148 22.272C331.876 20.688 332.74 18.432 332.74 15.504C332.74 9.312 329.188 6.216 322.084 6.216H312.436V24.648H322.084Z" stroke="#FFFCFC" stroke-width="2" mask="url(#path-1-inside-1)"/>
<path d="M374.003 51L362.051 30.48H354.131V51H347.579V0.816H363.779C367.571 0.816 370.763 1.464 373.355 2.76C375.995 4.056 377.963 5.808 379.259 8.016C380.555 10.224 381.203 12.744 381.203 15.576C381.203 19.032 380.195 22.08 378.179 24.72C376.211 27.36 373.235 29.112 369.251 29.976L381.851 51H374.003ZM354.131 25.224H363.779C367.331 25.224 369.995 24.36 371.771 22.632C373.547 20.856 374.435 18.504 374.435 15.576C374.435 12.6 373.547 10.296 371.771 8.664C370.043 7.032 367.379 6.216 363.779 6.216H354.131V25.224Z" stroke="#FFFCFC" stroke-width="2" mask="url(#path-1-inside-1)"/>
</g>
<defs>
<filter id="filter0_d" x="0.256165" y="0.167999" width="385.595" height="59.336" filterUnits="userSpaceOnUse" color-interpolation-filters="sRGB">
<feFlood flood-opacity="0" result="BackgroundImageFix"/>
<feColorMatrix in="SourceAlpha" type="matrix" values="0 0 0 0 0 0 0 0 0 0 0 0 0 0 0 0 0 0 127 0"/>
<feOffset dy="4"/>
<feGaussianBlur stdDeviation="2"/>
<feColorMatrix type="matrix" values="0 0 0 0 0 0 0 0 0 0 0 0 0 0 0 0 0 0 0.25 0"/>
<feBlend mode="normal" in2="BackgroundImageFix" result="effect1_dropShadow"/>
<feBlend mode="normal" in="SourceGraphic" in2="effect1_dropShadow" result="shape"/>
</filter>
</defs>
</svg>
