<svg width="451" height="353" viewBox="0 0 451 353" fill="none" xmlns="http://www.w3.org/2000/svg">
<rect width="451" height="353" fill="#E5E5E5"/>
<g id="undraw_off_road_9oae 1" clip-path="url(#clip0)">
<rect width="451" height="353" fill="white"/>
<g id="cloud">
<path id="Vector" opacity="0.1" d="M20.9202 140.015C27.8009 159.57 42.3636 176.498 65.3811 184.703C113.215 201.745 221.091 192.956 301.599 182.867C343.247 177.649 379.846 163.252 406.437 142.977L20.9202 140.015Z" fill="#6C63FF"/>
<path id="Vector_2" opacity="0.1" d="M443.118 47.8876H398.963C396.866 47.8876 395.145 46.745 395.145 45.3485C395.145 43.952 396.866 42.8094 398.963 42.8094H406.6C404.499 42.8094 402.782 41.6668 402.782 40.2703C402.782 38.8738 404.499 37.7312 406.6 37.7312H401.146C399.045 37.7312 397.328 36.5886 397.328 35.1921C397.328 33.7956 399.045 32.653 401.146 32.653H424.197C419.082 31.066 413.117 29.9404 406.208 29.3521C343.329 23.9692 320.88 27.5367 312.96 31.1803C302.686 35.9087 291.809 39.084 280.662 40.6089C241.855 45.9325 169.316 52.3438 103.566 38.5395C70.8882 31.6881 46.5992 43.2665 32.0405 62.6187H450.791C450.244 56.9904 448.608 51.7979 445.603 47.2529C444.839 47.6768 443.984 47.895 443.118 47.8876Z" fill="#6C63FF"/>
<path id="Vector_3" opacity="0.1" d="M17.1712 99.1608C15.4748 110.544 16.0579 122.167 18.8842 133.308L406.735 142.749C417.471 134.522 426.568 125.331 433.682 115.398L17.1712 99.1608ZM170.571 123.519H162.95C165.047 123.519 166.765 124.666 166.765 126.058C166.765 127.451 165.047 128.598 162.95 128.598H118.796C116.694 128.598 114.977 127.455 114.977 126.058C114.977 124.662 116.694 123.519 118.796 123.519H126.429C124.331 123.519 122.61 122.377 122.61 120.98C122.61 119.584 124.331 118.441 126.429 118.441H120.942C118.845 118.441 117.124 117.294 117.124 115.902C117.124 114.51 118.845 113.363 120.942 113.363H165.117C167.218 113.363 168.935 114.505 168.935 115.902C168.935 117.298 167.218 118.441 165.117 118.441H170.571C172.672 118.441 174.389 119.584 174.389 120.98C174.389 122.377 172.672 123.519 170.571 123.519Z" fill="#6C63FF"/>
<path id="Vector_4" opacity="0.1" d="M450.808 62.8092L27.3675 69.6648C22.2032 78.598 18.76 88.4824 17.2284 98.7714H443.388C446.114 92.8518 448.172 86.6266 449.52 80.219C450.808 74.1505 451.315 68.2767 450.808 62.8092ZM103.203 85.2718H95.5656C97.667 85.2718 99.3841 86.4187 99.3841 87.8109C99.3841 89.2032 97.667 90.3501 95.5656 90.3501H51.4112C49.3098 90.3501 47.5927 89.2075 47.5927 87.8109C47.5927 86.4144 49.3098 85.2718 51.4112 85.2718H59.0483C56.9469 85.2718 55.2298 84.1292 55.2298 82.7327C55.2298 81.3362 56.9469 80.1936 59.0483 80.1936H53.574C51.4726 80.1936 49.7554 79.0468 49.7554 77.6545C49.7554 76.2622 51.4726 75.1154 53.574 75.1154H97.7283C99.8257 75.1154 101.543 76.258 101.543 77.6545C101.543 79.051 99.8257 80.1936 97.7283 80.1936H103.182C105.28 80.1936 106.997 81.3362 106.997 82.7327C106.997 84.1292 105.304 85.2718 103.203 85.2718Z" fill="#6C63FF"/>
</g>
<g id="pill-2">
<path id="Vector_5" d="M239.701 111.581H237.424V241.52H239.701V111.581Z" fill="#535F89"/>
<path id="Vector_6" d="M241.856 265.824C240.813 266.662 239.531 267.117 238.211 267.117C236.891 267.117 235.608 266.662 234.566 265.824C233.548 258.871 236.132 245.206 236.741 242.125L236.868 241.508H239.811C240.007 241.709 240.162 241.949 240.265 242.214C242.264 246.67 241.856 265.824 241.856 265.824Z" fill="#535F89"/>
<path id="Vector_7" opacity="0.1" d="M239.194 238.706V241.512H237.967V238.706C238.165 238.672 238.364 238.655 238.564 238.655C238.775 238.655 238.986 238.672 239.194 238.706Z" fill="black"/>
<path id="Vector_8" opacity="0.1" d="M240.245 242.227C239.727 242.513 239.147 242.659 238.56 242.65C237.923 242.667 237.294 242.493 236.749 242.151L236.876 241.533H239.811C239.998 241.733 240.146 241.968 240.245 242.227Z" fill="black"/>
<path id="Vector_9" d="M238.56 242.159C239.917 242.159 241.017 241.483 241.017 240.649C241.017 239.814 239.917 239.138 238.56 239.138C237.203 239.138 236.103 239.814 236.103 240.649C236.103 241.483 237.203 242.159 238.56 242.159Z" fill="#DCE2ED"/>
<path id="Vector_10" d="M227.763 90.6505L236.414 86.3637L249.17 89.5206L239.272 81.7763L227.763 90.6505Z" fill="#6C63FF"/>
<path id="Vector_11" d="M230.294 92.0216L227.763 90.6505L236.414 86.3636L249.17 89.5206L246.925 90.6505L236.414 88.2087L230.294 92.0216Z" fill="#6C63FF"/>
<path id="Vector_12" opacity="0.1" d="M230.294 92.0216L227.763 90.6505L236.414 86.3636L249.17 89.5206L246.925 90.6505L236.414 88.2087L230.294 92.0216Z" fill="black"/>
<path id="Vector_13" opacity="0.2" d="M229.95 91.0102L236.913 111.205H240.363L246.811 89.7576L236.414 87.2566L229.95 91.0102Z" fill="#6C63FF"/>
<path id="Vector_14" d="M242.072 105.521L240.699 110.1L240.363 111.205H236.913L236.655 110.456L235.028 105.737L237.64 104.112L242.072 105.521Z" fill="#6C63FF"/>
<path id="Vector_15" opacity="0.2" d="M236.414 88.2087L238.062 111.205H236.913L230.294 92.0216L236.414 88.2087Z" fill="#6C63FF"/>
<path id="Vector_16" opacity="0.1" d="M239.272 81.7763L236.414 86.3637L227.763 90.6505L239.272 81.7763Z" fill="black"/>
<path id="Vector_17" opacity="0.1" d="M240.699 110.1L240.367 111.205H236.913L236.655 110.456C236.946 110.161 237.294 109.933 237.676 109.787C238.058 109.642 238.465 109.581 238.871 109.609C239.513 109.586 240.148 109.757 240.699 110.1Z" fill="black"/>
<path id="Vector_18" opacity="0.1" d="M239.194 111.581V113.549C239.088 113.549 238.981 113.549 238.871 113.549C238.565 113.551 238.261 113.514 237.963 113.439V111.581H239.194Z" fill="black"/>
<path id="Vector_19" d="M238.867 113.092C240.224 113.092 241.324 112.416 241.324 111.581C241.324 110.747 240.224 110.07 238.867 110.07C237.51 110.07 236.41 110.747 236.41 111.581C236.41 112.416 237.51 113.092 238.867 113.092Z" fill="#DCE2ED"/>
</g>
<g id="pill-3">
<path id="Vector_20" d="M328.198 174.78H326.693V260.686H328.198V174.78Z" fill="#535F89"/>
<path id="Vector_21" d="M329.629 276.755C328.94 277.309 328.093 277.609 327.221 277.609C326.349 277.609 325.501 277.309 324.813 276.755C324.138 272.159 325.847 263.12 326.248 261.097C326.301 260.83 326.333 260.674 326.333 260.674H328.259C328.389 260.806 328.492 260.965 328.562 261.139C329.894 264.097 329.629 276.755 329.629 276.755Z" fill="#535F89"/>
<path id="Vector_22" opacity="0.1" d="M327.862 258.829V260.686H327.045V258.829C327.18 258.803 327.317 258.792 327.454 258.795C327.591 258.795 327.727 258.807 327.862 258.829Z" fill="black"/>
<path id="Vector_23" opacity="0.1" d="M328.562 261.135C328.217 261.32 327.833 261.413 327.445 261.406C327.025 261.415 326.61 261.302 326.248 261.08C326.301 260.813 326.333 260.657 326.333 260.657H328.259C328.39 260.793 328.493 260.956 328.562 261.135Z" fill="black"/>
<path id="Vector_24" d="M327.445 261.11C328.342 261.11 329.069 260.662 329.069 260.111C329.069 259.559 328.342 259.112 327.445 259.112C326.549 259.112 325.822 259.559 325.822 260.111C325.822 260.662 326.549 261.11 327.445 261.11Z" fill="#DCE2ED"/>
<path id="Vector_25" d="M320.307 160.942L326.027 158.106L334.461 160.197L327.916 155.076L320.307 160.942Z" fill="#6C63FF"/>
<path id="Vector_26" d="M321.979 161.847L320.307 160.942L326.027 158.106L334.461 160.197L332.977 160.942L326.027 159.329L321.979 161.847Z" fill="#6C63FF"/>
<path id="Vector_27" opacity="0.1" d="M321.979 161.847L320.307 160.942L326.027 158.106L334.461 160.197L332.977 160.942L326.027 159.329L321.979 161.847Z" fill="black"/>
<path id="Vector_28" opacity="0.2" d="M321.75 161.179L326.354 174.53H328.639L332.899 160.353L326.027 158.699L321.75 161.179Z" fill="#6C63FF"/>
<path id="Vector_29" d="M329.768 170.772L328.86 173.802L328.639 174.534H326.354L326.186 174.039L325.111 170.92L326.836 169.845L329.768 170.772Z" fill="#6C63FF"/>
<path id="Vector_30" opacity="0.2" d="M326.027 159.329L327.118 174.53H326.354L321.979 161.847L326.027 159.329Z" fill="#6C63FF"/>
<path id="Vector_31" opacity="0.1" d="M327.916 155.076L326.027 158.106L320.307 160.942L327.916 155.076Z" fill="black"/>
<path id="Vector_32" opacity="0.1" d="M328.86 173.802L328.639 174.53H326.358L326.186 174.035C326.378 173.839 326.607 173.687 326.86 173.59C327.112 173.492 327.381 173.45 327.65 173.468C328.076 173.455 328.497 173.571 328.86 173.802Z" fill="black"/>
<path id="Vector_33" opacity="0.1" d="M327.863 174.78V176.075H327.65C327.449 176.075 327.249 176.051 327.053 176.003V174.763L327.863 174.78Z" fill="black"/>
<path id="Vector_34" d="M327.65 175.778C328.546 175.778 329.273 175.331 329.273 174.78C329.273 174.228 328.546 173.781 327.65 173.781C326.754 173.781 326.027 174.228 326.027 174.78C326.027 175.331 326.754 175.778 327.65 175.778Z" fill="#DCE2ED"/>
</g>
<g id="ground">
<path id="Vector_35" opacity="0.1" d="M181.932 353C282.411 353 363.865 344.663 363.865 334.38C363.865 324.096 282.411 315.76 181.932 315.76C81.4539 315.76 0 324.096 0 334.38C0 344.663 81.4539 353 181.932 353Z" fill="#6C63FF"/>
</g>
<g id="poll-1">
<path id="Vector_36" d="M91.6571 76.897H88.8157V239.095H91.6571V76.897Z" fill="#535F89"/>
<path id="Vector_37" d="M94.3554 269.434C93.055 270.481 91.4546 271.049 89.8071 271.049C88.1597 271.049 86.5592 270.481 85.2588 269.434C83.9914 260.754 87.213 243.695 87.9735 239.87L88.1329 239.095H91.7716C92.0136 239.349 92.2065 239.647 92.3399 239.976C94.8583 245.528 94.3554 269.434 94.3554 269.434Z" fill="#535F89"/>
<path id="Vector_38" opacity="0.1" d="M91.0234 235.591V239.095H89.4903V235.587C89.7376 235.546 89.9879 235.526 90.2385 235.528C90.5013 235.527 90.7638 235.549 91.0234 235.591Z" fill="black"/>
<path id="Vector_39" opacity="0.1" d="M92.3399 239.976C91.6921 240.326 90.9694 240.503 90.2384 240.488C89.4421 240.509 88.6565 240.294 87.9735 239.87L88.1329 239.095H91.7716C92.0136 239.349 92.2065 239.647 92.3399 239.976Z" fill="black"/>
<path id="Vector_40" d="M90.2385 239.891C91.9319 239.891 93.3047 239.048 93.3047 238.008C93.3047 236.968 91.9319 236.125 90.2385 236.125C88.545 236.125 87.1722 236.968 87.1722 238.008C87.1722 239.048 88.545 239.891 90.2385 239.891Z" fill="#DCE2ED"/>
<path id="Vector_41" d="M76.755 50.7695L87.5565 45.4162L103.481 49.3561L91.1215 39.6905L76.755 50.7695Z" fill="#6C63FF"/>
<path id="Vector_42" d="M79.9153 52.4792L76.755 50.7695L87.5565 45.4162L103.481 49.3561L100.676 50.7695L87.5565 47.7226L79.9153 52.4792Z" fill="#6C63FF"/>
<path id="Vector_43" opacity="0.1" d="M79.9153 52.4792L76.755 50.7695L87.5565 45.4162L103.481 49.3561L100.676 50.7695L87.5565 47.7226L79.9153 52.4792Z" fill="black"/>
<path id="Vector_44" opacity="0.2" d="M79.486 51.2181L88.1779 76.423H92.487L100.533 49.6566L87.5565 46.5335L79.486 51.2181Z" fill="#6C63FF"/>
<path id="Vector_45" d="M94.6212 69.3304L92.9 75.0477L92.487 76.4273H88.1779L87.8549 75.492L85.8271 69.6055L89.0855 67.5742L94.6212 69.3304Z" fill="#6C63FF"/>
<path id="Vector_46" opacity="0.2" d="M87.5565 47.7226L89.6129 76.423H88.1779L79.9153 52.4792L87.5565 47.7226Z" fill="#6C63FF"/>
<path id="Vector_47" opacity="0.1" d="M91.1215 39.6905L87.5565 45.4162L76.755 50.7695L91.1215 39.6905Z" fill="black"/>
</g>
<g id="tree">
<path id="Vector_48" d="M182.685 291.05C182.685 291.05 146.216 289.463 142.377 215.554C138.538 141.645 176.544 129.127 176.544 129.127C176.544 129.127 188.584 122.165 193.924 121.878C199.263 121.59 217.109 123.329 217.109 123.329L197.435 119.402C197.435 119.402 225.118 108.497 233.413 107.625L203.486 114.167C203.486 114.167 203.077 97.0071 210.232 91.3364C210.232 91.3364 204.099 90.8624 200.866 103.224C199.945 106.79 198.229 110.084 195.857 112.84C193.484 115.596 190.52 117.738 187.202 119.093C176.102 123.575 160.755 130.65 157.259 136.71C157.259 136.71 150.795 143.693 151.781 125.513C152.766 107.333 157.398 91.7681 159.087 91.3322C159.087 91.3322 172.292 76.7915 190.841 75.9198C190.841 75.9198 180.023 71.4086 161.756 85.5176C161.756 85.5176 160.211 78.3912 167.096 69.9529C173.98 61.5145 184.676 43.7746 196.319 41.8872C196.319 41.8872 180.023 40.8673 167.096 62.6825C167.096 62.6825 162.316 65.8818 161.895 57.7397C161.474 49.5976 158.665 39.4116 158.665 39.4116C158.665 39.4116 154.728 58.1756 163.02 66.6097C163.02 66.6097 147.14 87.989 147.844 111.988C147.844 111.988 142.938 122.893 141.102 110.096C141.102 110.096 140.043 92.4705 137.929 77.5109C137.074 71.4854 137.43 65.342 138.973 59.4651C140.517 53.5882 143.215 48.1041 146.899 43.3557C150.411 38.8318 152.856 34.4391 151.499 32.1328L133.101 54.8197C133.101 54.8197 117.626 17.7445 106.388 9.76321C95.1486 1.78194 93.7422 0.029953 93.7422 0.029953L111.866 21.989L89.106 13.6692L111.866 24.5747C111.866 24.5747 122.406 33.4616 128.448 57.7355C134.491 82.0094 135.051 97.1467 135.051 97.1467C135.051 97.1467 102.594 70.5326 96.4119 71.4044L117.414 87.8494C123.127 92.3205 127.846 98.0093 131.252 104.531C134.658 111.053 136.672 118.256 137.157 125.652C137.157 125.652 96.5509 114.891 86.7143 112.855L68.1695 93.2196L82.2212 111.84L53.2755 111.417L36.6972 99.1992C36.6972 99.1992 49.78 110.545 48.4962 111.273C47.2125 112.001 28.1239 112.872 28.1239 112.872C28.1239 112.872 76.7387 112.58 82.0903 116.215C87.442 119.851 99.3719 121.162 99.3719 121.162L64.9478 126.541L105.979 123.49C105.979 123.49 137.03 129.305 138.714 139.343C138.714 139.343 132.39 156.422 128.179 163.193C124.679 168.822 117.639 187.044 116.236 203.045C114.834 219.045 112.863 243.62 118.203 258.6C123.542 273.581 125.509 282.163 122.839 286.67C120.169 291.177 117.639 296.996 126.351 298.16C135.063 299.324 173.281 297.58 173.281 297.58C173.281 297.58 184.937 299.95 182.685 291.05Z" fill="#DEA3A2"/>
<path id="Vector_49" d="M259.239 231.609C259.239 231.609 280.184 230.695 282.388 188.25C284.591 145.804 262.763 138.61 262.763 138.61C262.763 138.61 255.85 134.611 252.784 134.446C249.717 134.281 239.468 135.292 239.468 135.292L250.764 133.037C250.764 133.037 234.869 126.774 230.106 126.266L247.277 130.024C247.277 130.024 247.518 120.168 243.401 116.905C243.401 116.905 246.909 116.634 248.781 123.731C249.308 125.78 250.293 127.672 251.655 129.256C253.018 130.839 254.721 132.069 256.627 132.846C263.005 135.424 271.819 139.486 273.827 142.965C273.827 142.965 277.539 146.976 276.971 136.532C276.402 126.088 273.745 117.15 272.776 116.901C272.776 116.901 265.192 108.551 254.538 108.048C254.538 108.048 260.752 105.462 271.243 113.549C271.243 113.549 272.13 109.457 268.176 104.611C264.223 99.7659 258.09 89.5756 251.39 88.4923C251.39 88.4923 260.752 87.9041 268.176 100.435C268.176 100.435 270.92 102.271 271.161 97.595C271.402 92.9188 273.017 87.0704 273.017 87.0704C273.017 87.0704 275.278 97.8447 270.515 102.69C270.515 102.69 279.636 114.963 279.231 128.754C279.231 128.754 282.056 135.017 283.107 127.667C283.107 127.667 283.712 117.544 284.926 108.958C285.417 105.496 285.212 101.968 284.326 98.5924C283.44 95.2169 281.89 92.0667 279.775 89.3386C277.76 86.7445 276.353 84.2181 277.134 82.8935L287.707 95.9234C287.707 95.9234 296.582 74.6245 303.038 70.0287C309.493 65.4329 310.303 64.4342 310.303 64.4342L299.91 77.0493L312.993 72.2885L299.91 78.5559C299.91 78.5559 293.86 83.6341 290.389 97.5992C286.918 111.564 286.595 120.235 286.595 120.235C286.595 120.235 305.225 104.98 308.79 105.462L296.726 114.903C293.444 117.472 290.734 120.739 288.777 124.485C286.82 128.231 285.664 132.368 285.384 136.617C285.384 136.617 308.688 130.434 314.359 129.266L324.988 117.988L316.938 128.678L333.562 128.428L343.088 121.412C343.088 121.412 335.581 127.929 336.297 128.348C337.012 128.767 348.002 129.266 348.002 129.266C348.002 129.266 320.078 129.101 317.012 131.187C313.946 133.274 307.085 134.027 307.085 134.027L326.865 137.142L303.3 135.385C303.3 135.385 285.466 138.729 284.493 144.492C284.493 144.492 288.128 154.302 290.548 158.191C292.555 161.42 296.599 171.889 297.404 181.077C298.21 190.264 299.342 204.382 296.276 212.985C293.21 221.588 292.081 226.527 293.614 229.108C295.147 231.69 296.599 235.033 291.595 235.706C286.59 236.379 264.64 235.371 264.64 235.371C264.64 235.371 257.943 236.721 259.239 231.609Z" fill="#DEA3A2"/>
</g>
</g>
<defs>
<clipPath id="clip0">
<rect width="451" height="353" fill="white"/>
</clipPath>
</defs>
</svg>
